<svg xmlns="http://www.w3.org/2000/svg" width="1764" height="1008" fill="none" viewBox="0 0 1764 1008"><rect width="1764" height="1008" fill="#fff"/><rect width="441" height="252" fill="#000"/><path fill="#0FF" d="M83.7939 181.376L91.4246 168.512H125.459V163.84H94.2023L98.6403 156.352H125.459V151.712H101.386L108.219 140.16L104.1 138.112L95.9903 151.712H62.3066V156.352H93.2126L88.7427 163.84H62.3066V168.512H85.965L79.5475 179.264L83.7939 181.376Z"/><path fill="#0FF" d="M198.69 140.48L194.667 143.872L203.799 153.92C205.555 155.84 206.066 156.448 207.886 157.6H136.24V162.336H207.886C206.353 163.328 205.076 164.672 203.799 166.016L194.667 176.064L198.69 179.456L216.027 159.968L198.69 140.48ZM218.039 140.48L214.079 143.872L228.702 159.968L214.079 176.064L218.039 179.456L235.407 159.968L218.039 140.48Z"/><path fill="#0FF" d="M265.401 162.368H292.316V175.04H297.329V162.368H309.876V157.856H297.329V145.088H292.316V157.856H265.401V145.088H260.388V157.856H248.001V162.368H260.388V175.04H265.401V162.368Z"/><path fill="#0FF" d="M328.44 152.224C328.44 155.072 330.643 157.44 333.581 157.44C336.55 157.44 338.753 155.072 338.753 152.224C338.753 149.376 336.55 147.072 333.581 147.072C330.643 147.072 328.44 149.376 328.44 152.224ZM384.537 151.712H349.193V156.352H384.537V151.712ZM328.44 167.968C328.44 170.88 330.643 173.184 333.581 173.184C336.55 173.184 338.753 170.88 338.753 167.968C338.753 165.184 336.55 162.816 333.581 162.816C330.643 162.816 328.44 165.184 328.44 167.968ZM384.537 163.84H349.193V168.512H384.537V163.84Z"/><path fill="#0F0" d="M71.2083 80.4799H90.9396L91.6101 75.9359H65.7168V120H71.2083V100.384H88.4492V95.9039H71.2083V80.4799Z"/><path fill="#0F0" d="M125.62 75.9359H100.461V80.3839H110.231V115.552H100.461V120H125.62V115.552H115.85V80.3839H125.62V75.9359Z"/><path fill="#0F0" d="M162.538 88.2879C162.538 80.1599 156.855 75.9359 145.999 75.9359H134.697V120H140.252V101.088H146.191L158.196 120H164.837L151.81 100.448C157.845 98.9759 162.538 94.9119 162.538 88.2879ZM156.599 88.2879C156.599 94.3999 152.96 96.7359 146.638 96.7359H140.252V80.3519H146.638C153.407 80.3519 156.599 82.6559 156.599 88.2879Z"/><path fill="#0F0" d="M195.587 108.768L199.099 120H204.91L190.607 75.9359H183.519L169.215 120H174.675L178.187 108.768H195.587ZM179.624 104.16L186.935 80.6079L194.151 104.16H179.624Z"/><path fill="#0F0" d="M253.222 75.2319C243.038 75.2319 234.417 83.1039 234.417 97.9519C234.417 112.736 242.718 120.736 253.446 120.736C259.704 120.736 263.918 118.56 266.6 115.936L263.727 112.288C261.396 114.208 258.427 115.968 253.51 115.968C246.039 115.968 240.164 111.072 240.164 97.9519C240.164 84.4799 246.422 79.8719 253.637 79.8719C256.99 79.8719 260.087 80.7999 262.865 83.1359L265.962 79.5199C262.481 76.7039 258.969 75.2319 253.222 75.2319Z"/><path fill="#0F0" d="M339.664 97.7599C339.664 79.4559 329.384 75.9359 319.103 75.9359H309.716V120H319.805C328.905 120 339.664 116.224 339.664 97.7599ZM333.758 97.7599C333.758 112.352 326.798 115.552 320.476 115.552H315.24V80.4799H320.412C326.446 80.4799 333.758 82.3999 333.758 97.7599Z"/><path fill="#0F0" d="M302.764 97.9842C302.764 84.3522 297.272 75.2002 286.577 75.2002C275.881 75.2002 270.389 84.6722 270.389 98.0482C270.389 111.68 275.881 120.704 286.577 120.704C297.272 120.704 302.764 111.36 302.764 97.9842ZM296.953 97.9842C296.953 109.728 293.984 116.032 286.577 116.032C279.361 116.032 276.2 109.792 276.2 98.0482C276.2 86.3042 279.169 79.8402 286.577 79.8402C293.984 79.8402 296.953 86.2402 296.953 97.9842Z"/><path fill="#F0F" fill-rule="evenodd" d="M384.132 66H344.223V130H384.132V66ZM374.569 80.48H355.796V95.328H372.079V99.904H355.796V115.552H375.782V120H350.24V75.936H375.208L374.569 80.48Z" clip-rule="evenodd"/><rect width="441" height="252" x="441" fill="#000"/><path fill="#51D05D" d="M524.794 181.376L532.425 168.512H566.459V163.84H535.202L539.64 156.352H566.459V151.712H542.386L549.219 140.16L545.1 138.112L536.99 151.712H503.307V156.352H534.213L529.743 163.84H503.307V168.512H526.965L520.548 179.264L524.794 181.376Z"/><path fill="#51D05D" d="M639.69 140.48L635.667 143.872L644.799 153.92C646.555 155.84 647.066 156.448 648.886 157.6H577.24V162.336H648.886C647.353 163.328 646.076 164.672 644.799 166.016L635.667 176.064L639.69 179.456L657.027 159.968L639.69 140.48ZM659.039 140.48L655.079 143.872L669.702 159.968L655.079 176.064L659.039 179.456L676.407 159.968L659.039 140.48Z"/><path fill="#51D05D" d="M706.401 162.368H733.316V175.04H738.329V162.368H750.876V157.856H738.329V145.088H733.316V157.856H706.401V145.088H701.388V157.856H689.001V162.368H701.388V175.04H706.401V162.368Z"/><path fill="#51D05D" d="M769.44 152.224C769.44 155.072 771.643 157.44 774.581 157.44C777.55 157.44 779.753 155.072 779.753 152.224C779.753 149.376 777.55 147.072 774.581 147.072C771.643 147.072 769.44 149.376 769.44 152.224ZM825.537 151.712H790.193V156.352H825.537V151.712ZM769.44 167.968C769.44 170.88 771.643 173.184 774.581 173.184C777.55 173.184 779.753 170.88 779.753 167.968C779.753 165.184 777.55 162.816 774.581 162.816C771.643 162.816 769.44 165.184 769.44 167.968ZM825.537 163.84H790.193V168.512H825.537V163.84Z"/><path fill="#DC3EA4" d="M512.208 80.4799H531.94L532.61 75.9359H506.717V120H512.208V100.384H529.449V95.9039H512.208V80.4799Z"/><path fill="#DC3EA4" d="M566.62 75.9359H541.461V80.3839H551.231V115.552H541.461V120H566.62V115.552H556.85V80.3839H566.62V75.9359Z"/><path fill="#DC3EA4" d="M603.538 88.2879C603.538 80.1599 597.855 75.9359 586.999 75.9359H575.697V120H581.252V101.088H587.191L599.196 120H605.837L592.81 100.448C598.845 98.9759 603.538 94.9119 603.538 88.2879ZM597.599 88.2879C597.599 94.3999 593.96 96.7359 587.638 96.7359H581.252V80.3519H587.638C594.407 80.3519 597.599 82.6559 597.599 88.2879Z"/><path fill="#DC3EA4" d="M636.587 108.768L640.099 120H645.91L631.607 75.9359H624.519L610.215 120H615.675L619.187 108.768H636.587ZM620.624 104.16L627.935 80.6079L635.151 104.16H620.624Z"/><path fill="#DC3EA4" d="M694.222 75.2319C684.038 75.2319 675.417 83.1039 675.417 97.9519C675.417 112.736 683.718 120.736 694.446 120.736C700.704 120.736 704.918 118.56 707.6 115.936L704.727 112.288C702.396 114.208 699.427 115.968 694.51 115.968C687.039 115.968 681.164 111.072 681.164 97.9519C681.164 84.4799 687.422 79.8719 694.637 79.8719C697.99 79.8719 701.087 80.7999 703.865 83.1359L706.962 79.5199C703.481 76.7039 699.969 75.2319 694.222 75.2319Z"/><path fill="#DC3EA4" d="M780.664 97.7599C780.664 79.4559 770.384 75.9359 760.103 75.9359H750.716V120H760.805C769.905 120 780.664 116.224 780.664 97.7599ZM774.758 97.7599C774.758 112.352 767.798 115.552 761.476 115.552H756.24V80.4799H761.412C767.446 80.4799 774.758 82.3999 774.758 97.7599Z"/><path fill="#DC3EA4" d="M743.764 97.9842C743.764 84.3522 738.272 75.2002 727.577 75.2002C716.881 75.2002 711.389 84.6722 711.389 98.0482C711.389 111.68 716.881 120.704 727.577 120.704C738.272 120.704 743.764 111.36 743.764 97.9842ZM737.953 97.9842C737.953 109.728 734.984 116.032 727.577 116.032C720.361 116.032 717.2 109.792 717.2 98.0482C717.2 86.3042 720.169 79.8402 727.577 79.8402C734.984 79.8402 737.953 86.2402 737.953 97.9842Z"/><path fill="#0BB3F8" fill-rule="evenodd" d="M825.132 66H785.223V130H825.132V66ZM815.569 80.48H796.796V95.328H813.079V99.904H796.796V115.552H816.782V120H791.24V75.936H816.208L815.569 80.48Z" clip-rule="evenodd"/><rect width="441" height="252" x="882" fill="#0D152B"/><path fill="#FF7A21" d="M965.794 181.376L973.425 168.512H1007.46V163.84H976.202L980.64 156.352H1007.46V151.712H983.386L990.219 140.16L986.1 138.112L977.99 151.712H944.307V156.352H975.213L970.743 163.84H944.307V168.512H967.965L961.548 179.264L965.794 181.376Z"/><path fill="#FF7A21" d="M1080.69 140.48L1076.67 143.872L1085.8 153.92C1087.55 155.84 1088.07 156.448 1089.89 157.6H1018.24V162.336H1089.89C1088.35 163.328 1087.08 164.672 1085.8 166.016L1076.67 176.064L1080.69 179.456L1098.03 159.968L1080.69 140.48ZM1100.04 140.48L1096.08 143.872L1110.7 159.968L1096.08 176.064L1100.04 179.456L1117.41 159.968L1100.04 140.48Z"/><path fill="#FF7A21" d="M1147.4 162.368H1174.32V175.04H1179.33V162.368H1191.88V157.856H1179.33V145.088H1174.32V157.856H1147.4V145.088H1142.39V157.856H1130V162.368H1142.39V175.04H1147.4V162.368Z"/><path fill="#FF7A21" d="M1210.44 152.224C1210.44 155.072 1212.64 157.44 1215.58 157.44C1218.55 157.44 1220.75 155.072 1220.75 152.224C1220.75 149.376 1218.55 147.072 1215.58 147.072C1212.64 147.072 1210.44 149.376 1210.44 152.224ZM1266.54 151.712H1231.19V156.352H1266.54V151.712ZM1210.44 167.968C1210.44 170.88 1212.64 173.184 1215.58 173.184C1218.55 173.184 1220.75 170.88 1220.75 167.968C1220.75 165.184 1218.55 162.816 1215.58 162.816C1212.64 162.816 1210.44 165.184 1210.44 167.968ZM1266.54 163.84H1231.19V168.512H1266.54V163.84Z"/><path fill="#70CC54" d="M953.208 80.4799H972.94L973.61 75.9359H947.717V120H953.208V100.384H970.449V95.9039H953.208V80.4799Z"/><path fill="#70CC54" d="M1007.62 75.9359H982.461V80.3839H992.231V115.552H982.461V120H1007.62V115.552H997.85V80.3839H1007.62V75.9359Z"/><path fill="#70CC54" d="M1044.54 88.2879C1044.54 80.1599 1038.85 75.9359 1028 75.9359H1016.7V120H1022.25V101.088H1028.19L1040.2 120H1046.84L1033.81 100.448C1039.84 98.9759 1044.54 94.9119 1044.54 88.2879ZM1038.6 88.2879C1038.6 94.3999 1034.96 96.7359 1028.64 96.7359H1022.25V80.3519H1028.64C1035.41 80.3519 1038.6 82.6559 1038.6 88.2879Z"/><path fill="#70CC54" d="M1077.59 108.768L1081.1 120H1086.91L1072.61 75.9359H1065.52L1051.22 120H1056.67L1060.19 108.768H1077.59ZM1061.62 104.16L1068.93 80.6079L1076.15 104.16H1061.62Z"/><path fill="#70CC54" d="M1135.22 75.2319C1125.04 75.2319 1116.42 83.1039 1116.42 97.9519C1116.42 112.736 1124.72 120.736 1135.45 120.736C1141.7 120.736 1145.92 118.56 1148.6 115.936L1145.73 112.288C1143.4 114.208 1140.43 115.968 1135.51 115.968C1128.04 115.968 1122.16 111.072 1122.16 97.9519C1122.16 84.4799 1128.42 79.8719 1135.64 79.8719C1138.99 79.8719 1142.09 80.7999 1144.86 83.1359L1147.96 79.5199C1144.48 76.7039 1140.97 75.2319 1135.22 75.2319Z"/><path fill="#70CC54" d="M1221.66 97.7599C1221.66 79.4559 1211.38 75.9359 1201.1 75.9359H1191.72V120H1201.81C1210.9 120 1221.66 116.224 1221.66 97.7599ZM1215.76 97.7599C1215.76 112.352 1208.8 115.552 1202.48 115.552H1197.24V80.4799H1202.41C1208.45 80.4799 1215.76 82.3999 1215.76 97.7599Z"/><path fill="#70CC54" d="M1184.76 97.9842C1184.76 84.3522 1179.27 75.2002 1168.58 75.2002C1157.88 75.2002 1152.39 84.6722 1152.39 98.0482C1152.39 111.68 1157.88 120.704 1168.58 120.704C1179.27 120.704 1184.76 111.36 1184.76 97.9842ZM1178.95 97.9842C1178.95 109.728 1175.98 116.032 1168.58 116.032C1161.36 116.032 1158.2 109.792 1158.2 98.0482C1158.2 86.3042 1161.17 79.8402 1168.58 79.8402C1175.98 79.8402 1178.95 86.2402 1178.95 97.9842Z"/><path fill="#DFF55A" fill-rule="evenodd" d="M1266.13 66H1226.22V130H1266.13V66ZM1256.57 80.48H1237.8V95.328H1254.08V99.904H1237.8V115.552H1257.78V120H1232.24V75.936H1257.21L1256.57 80.48Z" clip-rule="evenodd"/><rect width="441" height="252" x="1323" fill="#2B062A"/><path fill="#01A0A0" d="M1406.79 181.376L1414.42 168.512H1448.46V163.84H1417.2L1421.64 156.352H1448.46V151.712H1424.39L1431.22 140.16L1427.1 138.112L1418.99 151.712H1385.31V156.352H1416.21L1411.74 163.84H1385.31V168.512H1408.96L1402.55 179.264L1406.79 181.376Z"/><path fill="#01A0A0" d="M1521.69 140.48L1517.67 143.872L1526.8 153.92C1528.55 155.84 1529.07 156.448 1530.89 157.6H1459.24V162.336H1530.89C1529.35 163.328 1528.08 164.672 1526.8 166.016L1517.67 176.064L1521.69 179.456L1539.03 159.968L1521.69 140.48ZM1541.04 140.48L1537.08 143.872L1551.7 159.968L1537.08 176.064L1541.04 179.456L1558.41 159.968L1541.04 140.48Z"/><path fill="#01A0A0" d="M1588.4 162.368H1615.32V175.04H1620.33V162.368H1632.88V157.856H1620.33V145.088H1615.32V157.856H1588.4V145.088H1583.39V157.856H1571V162.368H1583.39V175.04H1588.4V162.368Z"/><path fill="#01A0A0" d="M1651.44 152.224C1651.44 155.072 1653.64 157.44 1656.58 157.44C1659.55 157.44 1661.75 155.072 1661.75 152.224C1661.75 149.376 1659.55 147.072 1656.58 147.072C1653.64 147.072 1651.44 149.376 1651.44 152.224ZM1707.54 151.712H1672.19V156.352H1707.54V151.712ZM1651.44 167.968C1651.44 170.88 1653.64 173.184 1656.58 173.184C1659.55 173.184 1661.75 170.88 1661.75 167.968C1661.75 165.184 1659.55 162.816 1656.58 162.816C1653.64 162.816 1651.44 165.184 1651.44 167.968ZM1707.54 163.84H1672.19V168.512H1707.54V163.84Z"/><path fill="#A6A5A6" d="M1394.21 80.4799H1413.94L1414.61 75.9359H1388.72V120H1394.21V100.384H1411.45V95.9039H1394.21V80.4799Z"/><path fill="#A6A5A6" d="M1448.62 75.9359H1423.46V80.3839H1433.23V115.552H1423.46V120H1448.62V115.552H1438.85V80.3839H1448.62V75.9359Z"/><path fill="#A6A5A6" d="M1485.54 88.2879C1485.54 80.1599 1479.85 75.9359 1469 75.9359H1457.7V120H1463.25V101.088H1469.19L1481.2 120H1487.84L1474.81 100.448C1480.84 98.9759 1485.54 94.9119 1485.54 88.2879ZM1479.6 88.2879C1479.6 94.3999 1475.96 96.7359 1469.64 96.7359H1463.25V80.3519H1469.64C1476.41 80.3519 1479.6 82.6559 1479.6 88.2879Z"/><path fill="#A6A5A6" d="M1518.59 108.768L1522.1 120H1527.91L1513.61 75.9359H1506.52L1492.22 120H1497.67L1501.19 108.768H1518.59ZM1502.62 104.16L1509.93 80.6079L1517.15 104.16H1502.62Z"/><path fill="#A6A5A6" d="M1576.22 75.2319C1566.04 75.2319 1557.42 83.1039 1557.42 97.9519C1557.42 112.736 1565.72 120.736 1576.45 120.736C1582.7 120.736 1586.92 118.56 1589.6 115.936L1586.73 112.288C1584.4 114.208 1581.43 115.968 1576.51 115.968C1569.04 115.968 1563.16 111.072 1563.16 97.9519C1563.16 84.4799 1569.42 79.8719 1576.64 79.8719C1579.99 79.8719 1583.09 80.7999 1585.86 83.1359L1588.96 79.5199C1585.48 76.7039 1581.97 75.2319 1576.22 75.2319Z"/><path fill="#A6A5A6" d="M1662.66 97.7599C1662.66 79.4559 1652.38 75.9359 1642.1 75.9359H1632.72V120H1642.81C1651.9 120 1662.66 116.224 1662.66 97.7599ZM1656.76 97.7599C1656.76 112.352 1649.8 115.552 1643.48 115.552H1638.24V80.4799H1643.41C1649.45 80.4799 1656.76 82.3999 1656.76 97.7599Z"/><path fill="#A6A5A6" d="M1625.76 97.9842C1625.76 84.3522 1620.27 75.2002 1609.58 75.2002C1598.88 75.2002 1593.39 84.6722 1593.39 98.0482C1593.39 111.68 1598.88 120.704 1609.58 120.704C1620.27 120.704 1625.76 111.36 1625.76 97.9842ZM1619.95 97.9842C1619.95 109.728 1616.98 116.032 1609.58 116.032C1602.36 116.032 1599.2 109.792 1599.2 98.0482C1599.2 86.3042 1602.17 79.8402 1609.58 79.8402C1616.98 79.8402 1619.95 86.2402 1619.95 97.9842Z"/><path fill="#936791" fill-rule="evenodd" d="M1707.13 66H1667.22V130H1707.13V66ZM1697.57 80.48H1678.8V95.328H1695.08V99.904H1678.8V115.552H1698.78V120H1673.24V75.936H1698.21L1697.57 80.48Z" clip-rule="evenodd"/><rect width="441" height="252" y="252" fill="#273955"/><path fill="#D05400" d="M83.7939 433.376L91.4246 420.512H125.459V415.84H94.2023L98.6403 408.352H125.459V403.712H101.386L108.219 392.16L104.1 390.112L95.9903 403.712H62.3066V408.352H93.2126L88.7427 415.84H62.3066V420.512H85.965L79.5475 431.264L83.7939 433.376Z"/><path fill="#D05400" d="M198.69 392.48L194.667 395.872L203.799 405.92C205.555 407.84 206.066 408.448 207.886 409.6H136.24V414.336H207.886C206.353 415.328 205.076 416.672 203.799 418.016L194.667 428.064L198.69 431.456L216.027 411.968L198.69 392.48ZM218.039 392.48L214.079 395.872L228.702 411.968L214.079 428.064L218.039 431.456L235.407 411.968L218.039 392.48Z"/><path fill="#D05400" d="M265.401 414.368H292.316V427.04H297.329V414.368H309.876V409.856H297.329V397.088H292.316V409.856H265.401V397.088H260.388V409.856H248.001V414.368H260.388V427.04H265.401V414.368Z"/><path fill="#D05400" d="M328.44 404.224C328.44 407.072 330.643 409.44 333.581 409.44C336.55 409.44 338.753 407.072 338.753 404.224C338.753 401.376 336.55 399.072 333.581 399.072C330.643 399.072 328.44 401.376 328.44 404.224ZM384.537 403.712H349.193V408.352H384.537V403.712ZM328.44 419.968C328.44 422.88 330.643 425.184 333.581 425.184C336.55 425.184 338.753 422.88 338.753 419.968C338.753 417.184 336.55 414.816 333.581 414.816C330.643 414.816 328.44 417.184 328.44 419.968ZM384.537 415.84H349.193V420.512H384.537V415.84Z"/><path fill="#FFF1D0" d="M71.2083 332.48H90.9396L91.6101 327.936H65.7168V372H71.2083V352.384H88.4492V347.904H71.2083V332.48Z"/><path fill="#FFF1D0" d="M125.62 327.936H100.461V332.384H110.231V367.552H100.461V372H125.62V367.552H115.85V332.384H125.62V327.936Z"/><path fill="#FFF1D0" d="M162.538 340.288C162.538 332.16 156.855 327.936 145.999 327.936H134.697V372H140.252V353.088H146.191L158.196 372H164.837L151.81 352.448C157.845 350.976 162.538 346.912 162.538 340.288ZM156.599 340.288C156.599 346.4 152.96 348.736 146.638 348.736H140.252V332.352H146.638C153.407 332.352 156.599 334.656 156.599 340.288Z"/><path fill="#FFF1D0" d="M195.587 360.768L199.099 372H204.91L190.607 327.936H183.519L169.215 372H174.675L178.187 360.768H195.587ZM179.624 356.16L186.935 332.608L194.151 356.16H179.624Z"/><path fill="#FFF1D0" d="M253.222 327.232C243.038 327.232 234.417 335.104 234.417 349.952C234.417 364.736 242.718 372.736 253.446 372.736C259.704 372.736 263.918 370.56 266.6 367.936L263.727 364.288C261.396 366.208 258.427 367.968 253.51 367.968C246.039 367.968 240.164 363.072 240.164 349.952C240.164 336.48 246.422 331.872 253.637 331.872C256.99 331.872 260.087 332.8 262.865 335.136L265.962 331.52C262.481 328.704 258.969 327.232 253.222 327.232Z"/><path fill="#FFF1D0" d="M339.664 349.76C339.664 331.456 329.384 327.936 319.103 327.936H309.716V372H319.805C328.905 372 339.664 368.224 339.664 349.76ZM333.758 349.76C333.758 364.352 326.798 367.552 320.476 367.552H315.24V332.48H320.412C326.446 332.48 333.758 334.4 333.758 349.76Z"/><path fill="#FFF1D0" d="M302.764 349.984C302.764 336.352 297.272 327.2 286.577 327.2C275.881 327.2 270.389 336.672 270.389 350.048C270.389 363.68 275.881 372.704 286.577 372.704C297.272 372.704 302.764 363.36 302.764 349.984ZM296.953 349.984C296.953 361.728 293.984 368.032 286.577 368.032C279.361 368.032 276.2 361.792 276.2 350.048C276.2 338.304 279.169 331.84 286.577 331.84C293.984 331.84 296.953 338.24 296.953 349.984Z"/><path fill="#D1D7E3" fill-rule="evenodd" d="M384.132 318H344.223V382H384.132V318ZM374.569 332.48H355.796V347.328H372.079V351.904H355.796V367.552H375.782V372H350.24V327.936H375.208L374.569 332.48Z" clip-rule="evenodd"/><rect width="441" height="252" x="441" y="252" fill="#1F3F59"/><path fill="#E6DB75" d="M524.794 433.376L532.425 420.512H566.459V415.84H535.202L539.64 408.352H566.459V403.712H542.386L549.219 392.16L545.1 390.112L536.99 403.712H503.307V408.352H534.213L529.743 415.84H503.307V420.512H526.965L520.548 431.264L524.794 433.376Z"/><path fill="#E6DB75" d="M639.69 392.48L635.667 395.872L644.799 405.92C646.555 407.84 647.066 408.448 648.886 409.6H577.24V414.336H648.886C647.353 415.328 646.076 416.672 644.799 418.016L635.667 428.064L639.69 431.456L657.027 411.968L639.69 392.48ZM659.039 392.48L655.079 395.872L669.702 411.968L655.079 428.064L659.039 431.456L676.407 411.968L659.039 392.48Z"/><path fill="#E6DB75" d="M706.401 414.368H733.316V427.04H738.329V414.368H750.876V409.856H738.329V397.088H733.316V409.856H706.401V397.088H701.388V409.856H689.001V414.368H701.388V427.04H706.401V414.368Z"/><path fill="#E6DB75" d="M769.44 404.224C769.44 407.072 771.643 409.44 774.581 409.44C777.55 409.44 779.753 407.072 779.753 404.224C779.753 401.376 777.55 399.072 774.581 399.072C771.643 399.072 769.44 401.376 769.44 404.224ZM825.537 403.712H790.193V408.352H825.537V403.712ZM769.44 419.968C769.44 422.88 771.643 425.184 774.581 425.184C777.55 425.184 779.753 422.88 779.753 419.968C779.753 417.184 777.55 414.816 774.581 414.816C771.643 414.816 769.44 417.184 769.44 419.968ZM825.537 415.84H790.193V420.512H825.537V415.84Z"/><path fill="#F8F8F2" d="M512.208 332.48H531.94L532.61 327.936H506.717V372H512.208V352.384H529.449V347.904H512.208V332.48Z"/><path fill="#F8F8F2" d="M566.62 327.936H541.461V332.384H551.231V367.552H541.461V372H566.62V367.552H556.85V332.384H566.62V327.936Z"/><path fill="#F8F8F2" d="M603.538 340.288C603.538 332.16 597.855 327.936 586.999 327.936H575.697V372H581.252V353.088H587.191L599.196 372H605.837L592.81 352.448C598.845 350.976 603.538 346.912 603.538 340.288ZM597.599 340.288C597.599 346.4 593.96 348.736 587.638 348.736H581.252V332.352H587.638C594.407 332.352 597.599 334.656 597.599 340.288Z"/><path fill="#F8F8F2" d="M636.587 360.768L640.099 372H645.91L631.607 327.936H624.519L610.215 372H615.675L619.187 360.768H636.587ZM620.624 356.16L627.935 332.608L635.151 356.16H620.624Z"/><path fill="#F8F8F2" d="M694.222 327.232C684.038 327.232 675.417 335.104 675.417 349.952C675.417 364.736 683.718 372.736 694.446 372.736C700.704 372.736 704.918 370.56 707.6 367.936L704.727 364.288C702.396 366.208 699.427 367.968 694.51 367.968C687.039 367.968 681.164 363.072 681.164 349.952C681.164 336.48 687.422 331.872 694.637 331.872C697.99 331.872 701.087 332.8 703.865 335.136L706.962 331.52C703.481 328.704 699.969 327.232 694.222 327.232Z"/><path fill="#F8F8F2" d="M780.664 349.76C780.664 331.456 770.384 327.936 760.103 327.936H750.716V372H760.805C769.905 372 780.664 368.224 780.664 349.76ZM774.758 349.76C774.758 364.352 767.798 367.552 761.476 367.552H756.24V332.48H761.412C767.446 332.48 774.758 334.4 774.758 349.76Z"/><path fill="#F8F8F2" d="M743.764 349.984C743.764 336.352 738.272 327.2 727.577 327.2C716.881 327.2 711.389 336.672 711.389 350.048C711.389 363.68 716.881 372.704 727.577 372.704C738.272 372.704 743.764 363.36 743.764 349.984ZM737.953 349.984C737.953 361.728 734.984 368.032 727.577 368.032C720.361 368.032 717.2 361.792 717.2 350.048C717.2 338.304 720.169 331.84 727.577 331.84C734.984 331.84 737.953 338.24 737.953 349.984Z"/><path fill="#A6E233" fill-rule="evenodd" d="M825.132 318H785.223V382H825.132V318ZM815.569 332.48H796.796V347.328H813.079V351.904H796.796V367.552H816.782V372H791.24V327.936H816.208L815.569 332.48Z" clip-rule="evenodd"/><rect width="441" height="252" x="882" y="252" fill="#012F50"/><path fill="#49D926" d="M965.794 433.376L973.425 420.512H1007.46V415.84H976.202L980.64 408.352H1007.46V403.712H983.386L990.219 392.16L986.1 390.112L977.99 403.712H944.307V408.352H975.213L970.743 415.84H944.307V420.512H967.965L961.548 431.264L965.794 433.376Z"/><path fill="#49D926" d="M1080.69 392.48L1076.67 395.872L1085.8 405.92C1087.55 407.84 1088.07 408.448 1089.89 409.6H1018.24V414.336H1089.89C1088.35 415.328 1087.08 416.672 1085.8 418.016L1076.67 428.064L1080.69 431.456L1098.03 411.968L1080.69 392.48ZM1100.04 392.48L1096.08 395.872L1110.7 411.968L1096.08 428.064L1100.04 431.456L1117.41 411.968L1100.04 392.48Z"/><path fill="#49D926" d="M1147.4 414.368H1174.32V427.04H1179.33V414.368H1191.88V409.856H1179.33V397.088H1174.32V409.856H1147.4V397.088H1142.39V409.856H1130V414.368H1142.39V427.04H1147.4V414.368Z"/><path fill="#49D926" d="M1210.44 404.224C1210.44 407.072 1212.64 409.44 1215.58 409.44C1218.55 409.44 1220.75 407.072 1220.75 404.224C1220.75 401.376 1218.55 399.072 1215.58 399.072C1212.64 399.072 1210.44 401.376 1210.44 404.224ZM1266.54 403.712H1231.19V408.352H1266.54V403.712ZM1210.44 419.968C1210.44 422.88 1212.64 425.184 1215.58 425.184C1218.55 425.184 1220.75 422.88 1220.75 419.968C1220.75 417.184 1218.55 414.816 1215.58 414.816C1212.64 414.816 1210.44 417.184 1210.44 419.968ZM1266.54 415.84H1231.19V420.512H1266.54V415.84Z"/><path fill="#FFDF30" d="M953.208 332.48H972.94L973.61 327.936H947.717V372H953.208V352.384H970.449V347.904H953.208V332.48Z"/><path fill="#FFDF30" d="M1007.62 327.936H982.461V332.384H992.231V367.552H982.461V372H1007.62V367.552H997.85V332.384H1007.62V327.936Z"/><path fill="#FFDF30" d="M1044.54 340.288C1044.54 332.16 1038.85 327.936 1028 327.936H1016.7V372H1022.25V353.088H1028.19L1040.2 372H1046.84L1033.81 352.448C1039.84 350.976 1044.54 346.912 1044.54 340.288ZM1038.6 340.288C1038.6 346.4 1034.96 348.736 1028.64 348.736H1022.25V332.352H1028.64C1035.41 332.352 1038.6 334.656 1038.6 340.288Z"/><path fill="#FFDF30" d="M1077.59 360.768L1081.1 372H1086.91L1072.61 327.936H1065.52L1051.22 372H1056.67L1060.19 360.768H1077.59ZM1061.62 356.16L1068.93 332.608L1076.15 356.16H1061.62Z"/><path fill="#FFDF30" d="M1135.22 327.232C1125.04 327.232 1116.42 335.104 1116.42 349.952C1116.42 364.736 1124.72 372.736 1135.45 372.736C1141.7 372.736 1145.92 370.56 1148.6 367.936L1145.73 364.288C1143.4 366.208 1140.43 367.968 1135.51 367.968C1128.04 367.968 1122.16 363.072 1122.16 349.952C1122.16 336.48 1128.42 331.872 1135.64 331.872C1138.99 331.872 1142.09 332.8 1144.86 335.136L1147.96 331.52C1144.48 328.704 1140.97 327.232 1135.22 327.232Z"/><path fill="#FFDF30" d="M1221.66 349.76C1221.66 331.456 1211.38 327.936 1201.1 327.936H1191.72V372H1201.81C1210.9 372 1221.66 368.224 1221.66 349.76ZM1215.76 349.76C1215.76 364.352 1208.8 367.552 1202.48 367.552H1197.24V332.48H1202.41C1208.45 332.48 1215.76 334.4 1215.76 349.76Z"/><path fill="#FFDF30" d="M1184.76 349.984C1184.76 336.352 1179.27 327.2 1168.58 327.2C1157.88 327.2 1152.39 336.672 1152.39 350.048C1152.39 363.68 1157.88 372.704 1168.58 372.704C1179.27 372.704 1184.76 363.36 1184.76 349.984ZM1178.95 349.984C1178.95 361.728 1175.98 368.032 1168.58 368.032C1161.36 368.032 1158.2 361.792 1158.2 350.048C1158.2 338.304 1161.17 331.84 1168.58 331.84C1175.98 331.84 1178.95 338.24 1178.95 349.984Z"/><path fill="#FF7D9E" fill-rule="evenodd" d="M1266.13 318H1226.22V382H1266.13V318ZM1256.57 332.48H1237.8V347.328H1254.08V351.904H1237.8V367.552H1257.78V372H1232.24V327.936H1257.21L1256.57 332.48Z" clip-rule="evenodd"/><rect width="441" height="252" x="1323" y="252" fill="#00A"/><path fill="#FF5" d="M1406.79 433.376L1414.42 420.512H1448.46V415.84H1417.2L1421.64 408.352H1448.46V403.712H1424.39L1431.22 392.16L1427.1 390.112L1418.99 403.712H1385.31V408.352H1416.21L1411.74 415.84H1385.31V420.512H1408.96L1402.55 431.264L1406.79 433.376Z"/><path fill="#FF5" d="M1521.69 392.48L1517.67 395.872L1526.8 405.92C1528.55 407.84 1529.07 408.448 1530.89 409.6H1459.24V414.336H1530.89C1529.35 415.328 1528.08 416.672 1526.8 418.016L1517.67 428.064L1521.69 431.456L1539.03 411.968L1521.69 392.48ZM1541.04 392.48L1537.08 395.872L1551.7 411.968L1537.08 428.064L1541.04 431.456L1558.41 411.968L1541.04 392.48Z"/><path fill="#FF5" d="M1588.4 414.368H1615.32V427.04H1620.33V414.368H1632.88V409.856H1620.33V397.088H1615.32V409.856H1588.4V397.088H1583.39V409.856H1571V414.368H1583.39V427.04H1588.4V414.368Z"/><path fill="#FF5" d="M1651.44 404.224C1651.44 407.072 1653.64 409.44 1656.58 409.44C1659.55 409.44 1661.75 407.072 1661.75 404.224C1661.75 401.376 1659.55 399.072 1656.58 399.072C1653.64 399.072 1651.44 401.376 1651.44 404.224ZM1707.54 403.712H1672.19V408.352H1707.54V403.712ZM1651.44 419.968C1651.44 422.88 1653.64 425.184 1656.58 425.184C1659.55 425.184 1661.75 422.88 1661.75 419.968C1661.75 417.184 1659.55 414.816 1656.58 414.816C1653.64 414.816 1651.44 417.184 1651.44 419.968ZM1707.54 415.84H1672.19V420.512H1707.54V415.84Z"/><path fill="#5FF" d="M1394.21 332.48H1413.94L1414.61 327.936H1388.72V372H1394.21V352.384H1411.45V347.904H1394.21V332.48Z"/><path fill="#5FF" d="M1448.62 327.936H1423.46V332.384H1433.23V367.552H1423.46V372H1448.62V367.552H1438.85V332.384H1448.62V327.936Z"/><path fill="#5FF" d="M1485.54 340.288C1485.54 332.16 1479.85 327.936 1469 327.936H1457.7V372H1463.25V353.088H1469.19L1481.2 372H1487.84L1474.81 352.448C1480.84 350.976 1485.54 346.912 1485.54 340.288ZM1479.6 340.288C1479.6 346.4 1475.96 348.736 1469.64 348.736H1463.25V332.352H1469.64C1476.41 332.352 1479.6 334.656 1479.6 340.288Z"/><path fill="#5FF" d="M1518.59 360.768L1522.1 372H1527.91L1513.61 327.936H1506.52L1492.22 372H1497.67L1501.19 360.768H1518.59ZM1502.62 356.16L1509.93 332.608L1517.15 356.16H1502.62Z"/><path fill="#5FF" d="M1576.22 327.232C1566.04 327.232 1557.42 335.104 1557.42 349.952C1557.42 364.736 1565.72 372.736 1576.45 372.736C1582.7 372.736 1586.92 370.56 1589.6 367.936L1586.73 364.288C1584.4 366.208 1581.43 367.968 1576.51 367.968C1569.04 367.968 1563.16 363.072 1563.16 349.952C1563.16 336.48 1569.42 331.872 1576.64 331.872C1579.99 331.872 1583.09 332.8 1585.86 335.136L1588.96 331.52C1585.48 328.704 1581.97 327.232 1576.22 327.232Z"/><path fill="#5FF" d="M1662.66 349.76C1662.66 331.456 1652.38 327.936 1642.1 327.936H1632.72V372H1642.81C1651.9 372 1662.66 368.224 1662.66 349.76ZM1656.76 349.76C1656.76 364.352 1649.8 367.552 1643.48 367.552H1638.24V332.48H1643.41C1649.45 332.48 1656.76 334.4 1656.76 349.76Z"/><path fill="#5FF" d="M1625.76 349.984C1625.76 336.352 1620.27 327.2 1609.58 327.2C1598.88 327.2 1593.39 336.672 1593.39 350.048C1593.39 363.68 1598.88 372.704 1609.58 372.704C1620.27 372.704 1625.76 363.36 1625.76 349.984ZM1619.95 349.984C1619.95 361.728 1616.98 368.032 1609.58 368.032C1602.36 368.032 1599.2 361.792 1599.2 350.048C1599.2 338.304 1602.17 331.84 1609.58 331.84C1616.98 331.84 1619.95 338.24 1619.95 349.984Z"/><path fill="#0AA" fill-rule="evenodd" d="M1707.13 318H1667.22V382H1707.13V318ZM1697.57 332.48H1678.8V347.328H1695.08V351.904H1678.8V367.552H1698.78V372H1673.24V327.936H1698.21L1697.57 332.48Z" clip-rule="evenodd"/><rect width="441" height="252" y="504" fill="#fff"/><path fill="#000" d="M83.7939 685.376L91.4246 672.512H125.459V667.84H94.2023L98.6403 660.352H125.459V655.712H101.386L108.219 644.16L104.1 642.112L95.9903 655.712H62.3066V660.352H93.2126L88.7427 667.84H62.3066V672.512H85.965L79.5475 683.264L83.7939 685.376Z"/><path fill="#000" d="M198.69 644.48L194.667 647.872L203.799 657.92C205.555 659.84 206.066 660.448 207.886 661.6H136.24V666.336H207.886C206.353 667.328 205.076 668.672 203.799 670.016L194.667 680.064L198.69 683.456L216.027 663.968L198.69 644.48ZM218.039 644.48L214.079 647.872L228.702 663.968L214.079 680.064L218.039 683.456L235.407 663.968L218.039 644.48Z"/><path fill="#000" d="M265.401 666.368H292.316V679.04H297.329V666.368H309.876V661.856H297.329V649.088H292.316V661.856H265.401V649.088H260.388V661.856H248.001V666.368H260.388V679.04H265.401V666.368Z"/><path fill="#000" d="M328.44 656.224C328.44 659.072 330.643 661.44 333.581 661.44C336.55 661.44 338.753 659.072 338.753 656.224C338.753 653.376 336.55 651.072 333.581 651.072C330.643 651.072 328.44 653.376 328.44 656.224ZM384.537 655.712H349.193V660.352H384.537V655.712ZM328.44 671.968C328.44 674.88 330.643 677.184 333.581 677.184C336.55 677.184 338.753 674.88 338.753 671.968C338.753 669.184 336.55 666.816 333.581 666.816C330.643 666.816 328.44 669.184 328.44 671.968ZM384.537 667.84H349.193V672.512H384.537V667.84Z"/><path fill="#000" d="M71.2083 584.48H90.9396L91.6101 579.936H65.7168V624H71.2083V604.384H88.4492V599.904H71.2083V584.48Z"/><path fill="#000" d="M125.62 579.936H100.461V584.384H110.231V619.552H100.461V624H125.62V619.552H115.85V584.384H125.62V579.936Z"/><path fill="#000" d="M162.538 592.288C162.538 584.16 156.855 579.936 145.999 579.936H134.697V624H140.252V605.088H146.191L158.196 624H164.837L151.81 604.448C157.845 602.976 162.538 598.912 162.538 592.288ZM156.599 592.288C156.599 598.4 152.96 600.736 146.638 600.736H140.252V584.352H146.638C153.407 584.352 156.599 586.656 156.599 592.288Z"/><path fill="#000" d="M195.587 612.768L199.099 624H204.91L190.607 579.936H183.519L169.215 624H174.675L178.187 612.768H195.587ZM179.624 608.16L186.935 584.608L194.151 608.16H179.624Z"/><path fill="#000" d="M253.222 579.232C243.038 579.232 234.417 587.104 234.417 601.952C234.417 616.736 242.718 624.736 253.446 624.736C259.704 624.736 263.918 622.56 266.6 619.936L263.727 616.288C261.396 618.208 258.427 619.968 253.51 619.968C246.039 619.968 240.164 615.072 240.164 601.952C240.164 588.48 246.422 583.872 253.637 583.872C256.99 583.872 260.087 584.8 262.865 587.136L265.962 583.52C262.481 580.704 258.969 579.232 253.222 579.232Z"/><path fill="#000" d="M339.664 601.76C339.664 583.456 329.384 579.936 319.103 579.936H309.716V624H319.805C328.905 624 339.664 620.224 339.664 601.76ZM333.758 601.76C333.758 616.352 326.798 619.552 320.476 619.552H315.24V584.48H320.412C326.446 584.48 333.758 586.4 333.758 601.76Z"/><path fill="#000" d="M302.764 601.984C302.764 588.352 297.272 579.2 286.577 579.2C275.881 579.2 270.389 588.672 270.389 602.048C270.389 615.68 275.881 624.704 286.577 624.704C297.272 624.704 302.764 615.36 302.764 601.984ZM296.953 601.984C296.953 613.728 293.984 620.032 286.577 620.032C279.361 620.032 276.2 613.792 276.2 602.048C276.2 590.304 279.169 583.84 286.577 583.84C293.984 583.84 296.953 590.24 296.953 601.984Z"/><path fill="#000" fill-rule="evenodd" d="M384.132 570H344.223V634H384.132V570ZM374.569 584.48H355.796V599.328H372.079V603.904H355.796V619.552H375.782V624H350.24V579.936H375.208L374.569 584.48Z" clip-rule="evenodd"/><rect width="441" height="252" x="441" y="504" fill="#F7F7F7"/><path fill="#795DA3" d="M524.794 685.376L532.425 672.512H566.459V667.84H535.202L539.64 660.352H566.459V655.712H542.386L549.219 644.16L545.1 642.112L536.99 655.712H503.307V660.352H534.213L529.743 667.84H503.307V672.512H526.965L520.548 683.264L524.794 685.376Z"/><path fill="#795DA3" d="M639.69 644.48L635.667 647.872L644.799 657.92C646.555 659.84 647.066 660.448 648.886 661.6H577.24V666.336H648.886C647.353 667.328 646.076 668.672 644.799 670.016L635.667 680.064L639.69 683.456L657.027 663.968L639.69 644.48ZM659.039 644.48L655.079 647.872L669.702 663.968L655.079 680.064L659.039 683.456L676.407 663.968L659.039 644.48Z"/><path fill="#795DA3" d="M706.401 666.368H733.316V679.04H738.329V666.368H750.876V661.856H738.329V649.088H733.316V661.856H706.401V649.088H701.388V661.856H689.001V666.368H701.388V679.04H706.401V666.368Z"/><path fill="#795DA3" d="M769.44 656.224C769.44 659.072 771.643 661.44 774.581 661.44C777.55 661.44 779.753 659.072 779.753 656.224C779.753 653.376 777.55 651.072 774.581 651.072C771.643 651.072 769.44 653.376 769.44 656.224ZM825.537 655.712H790.193V660.352H825.537V655.712ZM769.44 671.968C769.44 674.88 771.643 677.184 774.581 677.184C777.55 677.184 779.753 674.88 779.753 671.968C779.753 669.184 777.55 666.816 774.581 666.816C771.643 666.816 769.44 669.184 769.44 671.968ZM825.537 667.84H790.193V672.512H825.537V667.84Z"/><path fill="#A71D5D" d="M512.208 584.48H531.94L532.61 579.936H506.717V624H512.208V604.384H529.449V599.904H512.208V584.48Z"/><path fill="#A71D5D" d="M566.62 579.936H541.461V584.384H551.231V619.552H541.461V624H566.62V619.552H556.85V584.384H566.62V579.936Z"/><path fill="#A71D5D" d="M603.538 592.288C603.538 584.16 597.855 579.936 586.999 579.936H575.697V624H581.252V605.088H587.191L599.196 624H605.837L592.81 604.448C598.845 602.976 603.538 598.912 603.538 592.288ZM597.599 592.288C597.599 598.4 593.96 600.736 587.638 600.736H581.252V584.352H587.638C594.407 584.352 597.599 586.656 597.599 592.288Z"/><path fill="#A71D5D" d="M636.587 612.768L640.099 624H645.91L631.607 579.936H624.519L610.215 624H615.675L619.187 612.768H636.587ZM620.624 608.16L627.935 584.608L635.151 608.16H620.624Z"/><path fill="#A71D5D" d="M694.222 579.232C684.038 579.232 675.417 587.104 675.417 601.952C675.417 616.736 683.718 624.736 694.446 624.736C700.704 624.736 704.918 622.56 707.6 619.936L704.727 616.288C702.396 618.208 699.427 619.968 694.51 619.968C687.039 619.968 681.164 615.072 681.164 601.952C681.164 588.48 687.422 583.872 694.637 583.872C697.99 583.872 701.087 584.8 703.865 587.136L706.962 583.52C703.481 580.704 699.969 579.232 694.222 579.232Z"/><path fill="#A71D5D" d="M780.664 601.76C780.664 583.456 770.384 579.936 760.103 579.936H750.716V624H760.805C769.905 624 780.664 620.224 780.664 601.76ZM774.758 601.76C774.758 616.352 767.798 619.552 761.476 619.552H756.24V584.48H761.412C767.446 584.48 774.758 586.4 774.758 601.76Z"/><path fill="#A71D5D" d="M743.764 601.984C743.764 588.352 738.272 579.2 727.577 579.2C716.881 579.2 711.389 588.672 711.389 602.048C711.389 615.68 716.881 624.704 727.577 624.704C738.272 624.704 743.764 615.36 743.764 601.984ZM737.953 601.984C737.953 613.728 734.984 620.032 727.577 620.032C720.361 620.032 717.2 613.792 717.2 602.048C717.2 590.304 720.169 583.84 727.577 583.84C734.984 583.84 737.953 590.24 737.953 601.984Z"/><path fill="#0086B3" fill-rule="evenodd" d="M825.132 570H785.223V634H825.132V570ZM815.569 584.48H796.796V599.328H813.079V603.904H796.796V619.552H816.782V624H791.24V579.936H816.208L815.569 584.48Z" clip-rule="evenodd"/><rect width="441" height="252" x="882" y="504" fill="#EFF0F3"/><path fill="#D05400" d="M965.794 685.376L973.425 672.512H1007.46V667.84H976.202L980.64 660.352H1007.46V655.712H983.386L990.219 644.16L986.1 642.112L977.99 655.712H944.307V660.352H975.213L970.743 667.84H944.307V672.512H967.965L961.548 683.264L965.794 685.376Z"/><path fill="#D05400" d="M1080.69 644.48L1076.67 647.872L1085.8 657.92C1087.55 659.84 1088.07 660.448 1089.89 661.6H1018.24V666.336H1089.89C1088.35 667.328 1087.08 668.672 1085.8 670.016L1076.67 680.064L1080.69 683.456L1098.03 663.968L1080.69 644.48ZM1100.04 644.48L1096.08 647.872L1110.7 663.968L1096.08 680.064L1100.04 683.456L1117.41 663.968L1100.04 644.48Z"/><path fill="#D05400" d="M1147.4 666.368H1174.32V679.04H1179.33V666.368H1191.88V661.856H1179.33V649.088H1174.32V661.856H1147.4V649.088H1142.39V661.856H1130V666.368H1142.39V679.04H1147.4V666.368Z"/><path fill="#D05400" d="M1210.44 656.224C1210.44 659.072 1212.64 661.44 1215.58 661.44C1218.55 661.44 1220.75 659.072 1220.75 656.224C1220.75 653.376 1218.55 651.072 1215.58 651.072C1212.64 651.072 1210.44 653.376 1210.44 656.224ZM1266.54 655.712H1231.19V660.352H1266.54V655.712ZM1210.44 671.968C1210.44 674.88 1212.64 677.184 1215.58 677.184C1218.55 677.184 1220.75 674.88 1220.75 671.968C1220.75 669.184 1218.55 666.816 1215.58 666.816C1212.64 666.816 1210.44 669.184 1210.44 671.968ZM1266.54 667.84H1231.19V672.512H1266.54V667.84Z"/><path fill="#007CCD" d="M953.208 584.48H972.94L973.61 579.936H947.717V624H953.208V604.384H970.449V599.904H953.208V584.48Z"/><path fill="#007CCD" d="M1007.62 579.936H982.461V584.384H992.231V619.552H982.461V624H1007.62V619.552H997.85V584.384H1007.62V579.936Z"/><path fill="#007CCD" d="M1044.54 592.288C1044.54 584.16 1038.85 579.936 1028 579.936H1016.7V624H1022.25V605.088H1028.19L1040.2 624H1046.84L1033.81 604.448C1039.84 602.976 1044.54 598.912 1044.54 592.288ZM1038.6 592.288C1038.6 598.4 1034.96 600.736 1028.64 600.736H1022.25V584.352H1028.64C1035.41 584.352 1038.6 586.656 1038.6 592.288Z"/><path fill="#007CCD" d="M1077.59 612.768L1081.1 624H1086.91L1072.61 579.936H1065.52L1051.22 624H1056.67L1060.19 612.768H1077.59ZM1061.62 608.16L1068.93 584.608L1076.15 608.16H1061.62Z"/><path fill="#007CCD" d="M1135.22 579.232C1125.04 579.232 1116.42 587.104 1116.42 601.952C1116.42 616.736 1124.72 624.736 1135.45 624.736C1141.7 624.736 1145.92 622.56 1148.6 619.936L1145.73 616.288C1143.4 618.208 1140.43 619.968 1135.51 619.968C1128.04 619.968 1122.16 615.072 1122.16 601.952C1122.16 588.48 1128.42 583.872 1135.64 583.872C1138.99 583.872 1142.09 584.8 1144.86 587.136L1147.96 583.52C1144.48 580.704 1140.97 579.232 1135.22 579.232Z"/><path fill="#007CCD" d="M1221.66 601.76C1221.66 583.456 1211.38 579.936 1201.1 579.936H1191.72V624H1201.81C1210.9 624 1221.66 620.224 1221.66 601.76ZM1215.76 601.76C1215.76 616.352 1208.8 619.552 1202.48 619.552H1197.24V584.48H1202.41C1208.45 584.48 1215.76 586.4 1215.76 601.76Z"/><path fill="#007CCD" d="M1184.76 601.984C1184.76 588.352 1179.27 579.2 1168.58 579.2C1157.88 579.2 1152.39 588.672 1152.39 602.048C1152.39 615.68 1157.88 624.704 1168.58 624.704C1179.27 624.704 1184.76 615.36 1184.76 601.984ZM1178.95 601.984C1178.95 613.728 1175.98 620.032 1168.58 620.032C1161.36 620.032 1158.2 613.792 1158.2 602.048C1158.2 590.304 1161.17 583.84 1168.58 583.84C1175.98 583.84 1178.95 590.24 1178.95 601.984Z"/><path fill="#69287A" fill-rule="evenodd" d="M1266.13 570H1226.22V634H1266.13V570ZM1256.57 584.48H1237.8V599.328H1254.08V603.904H1237.8V619.552H1257.78V624H1232.24V579.936H1257.21L1256.57 584.48Z" clip-rule="evenodd"/><rect width="441" height="252" x="1323" y="504" fill="#EFE7D4"/><path fill="#008ED4" d="M1406.79 685.376L1414.42 672.512H1448.46V667.84H1417.2L1421.64 660.352H1448.46V655.712H1424.39L1431.22 644.16L1427.1 642.112L1418.99 655.712H1385.31V660.352H1416.21L1411.74 667.84H1385.31V672.512H1408.96L1402.55 683.264L1406.79 685.376Z"/><path fill="#008ED4" d="M1521.69 644.48L1517.67 647.872L1526.8 657.92C1528.55 659.84 1529.07 660.448 1530.89 661.6H1459.24V666.336H1530.89C1529.35 667.328 1528.08 668.672 1526.8 670.016L1517.67 680.064L1521.69 683.456L1539.03 663.968L1521.69 644.48ZM1541.04 644.48L1537.08 647.872L1551.7 663.968L1537.08 680.064L1541.04 683.456L1558.41 663.968L1541.04 644.48Z"/><path fill="#008ED4" d="M1588.4 666.368H1615.32V679.04H1620.33V666.368H1632.88V661.856H1620.33V649.088H1615.32V661.856H1588.4V649.088H1583.39V661.856H1571V666.368H1583.39V679.04H1588.4V666.368Z"/><path fill="#008ED4" d="M1651.44 656.224C1651.44 659.072 1653.64 661.44 1656.58 661.44C1659.55 661.44 1661.75 659.072 1661.75 656.224C1661.75 653.376 1659.55 651.072 1656.58 651.072C1653.64 651.072 1651.44 653.376 1651.44 656.224ZM1707.54 655.712H1672.19V660.352H1707.54V655.712ZM1651.44 671.968C1651.44 674.88 1653.64 677.184 1656.58 677.184C1659.55 677.184 1661.75 674.88 1661.75 671.968C1661.75 669.184 1659.55 666.816 1656.58 666.816C1653.64 666.816 1651.44 669.184 1651.44 671.968ZM1707.54 667.84H1672.19V672.512H1707.54V667.84Z"/><path fill="#D34E01" d="M1394.21 584.48H1413.94L1414.61 579.936H1388.72V624H1394.21V604.384H1411.45V599.904H1394.21V584.48Z"/><path fill="#D34E01" d="M1448.62 579.936H1423.46V584.384H1433.23V619.552H1423.46V624H1448.62V619.552H1438.85V584.384H1448.62V579.936Z"/><path fill="#D34E01" d="M1485.54 592.288C1485.54 584.16 1479.85 579.936 1469 579.936H1457.7V624H1463.25V605.088H1469.19L1481.2 624H1487.84L1474.81 604.448C1480.84 602.976 1485.54 598.912 1485.54 592.288ZM1479.6 592.288C1479.6 598.4 1475.96 600.736 1469.64 600.736H1463.25V584.352H1469.64C1476.41 584.352 1479.6 586.656 1479.6 592.288Z"/><path fill="#D34E01" d="M1518.59 612.768L1522.1 624H1527.91L1513.61 579.936H1506.52L1492.22 624H1497.67L1501.19 612.768H1518.59ZM1502.62 608.16L1509.93 584.608L1517.15 608.16H1502.62Z"/><path fill="#D34E01" d="M1576.22 579.232C1566.04 579.232 1557.42 587.104 1557.42 601.952C1557.42 616.736 1565.72 624.736 1576.45 624.736C1582.7 624.736 1586.92 622.56 1589.6 619.936L1586.73 616.288C1584.4 618.208 1581.43 619.968 1576.51 619.968C1569.04 619.968 1563.16 615.072 1563.16 601.952C1563.16 588.48 1569.42 583.872 1576.64 583.872C1579.99 583.872 1583.09 584.8 1585.86 587.136L1588.96 583.52C1585.48 580.704 1581.97 579.232 1576.22 579.232Z"/><path fill="#D34E01" d="M1662.66 601.76C1662.66 583.456 1652.38 579.936 1642.1 579.936H1632.72V624H1642.81C1651.9 624 1662.66 620.224 1662.66 601.76ZM1656.76 601.76C1656.76 616.352 1649.8 619.552 1643.48 619.552H1638.24V584.48H1643.41C1649.45 584.48 1656.76 586.4 1656.76 601.76Z"/><path fill="#D34E01" d="M1625.76 601.984C1625.76 588.352 1620.27 579.2 1609.58 579.2C1598.88 579.2 1593.39 588.672 1593.39 602.048C1593.39 615.68 1598.88 624.704 1609.58 624.704C1620.27 624.704 1625.76 615.36 1625.76 601.984ZM1619.95 601.984C1619.95 613.728 1616.98 620.032 1609.58 620.032C1602.36 620.032 1599.2 613.792 1599.2 602.048C1599.2 590.304 1602.17 583.84 1609.58 583.84C1616.98 583.84 1619.95 590.24 1619.95 601.984Z"/><path fill="#BA8800" fill-rule="evenodd" d="M1707.13 570H1667.22V634H1707.13V570ZM1697.57 584.48H1678.8V599.328H1695.08V603.904H1678.8V619.552H1698.78V624H1673.24V579.936H1698.21L1697.57 584.48Z" clip-rule="evenodd"/><rect width="441" height="252" y="756" fill="#272822"/><path fill="#F92772" d="M83.7939 937.376L91.4246 924.512H125.459V919.84H94.2023L98.6403 912.352H125.459V907.712H101.386L108.219 896.16L104.1 894.112L95.9903 907.712H62.3066V912.352H93.2126L88.7427 919.84H62.3066V924.512H85.965L79.5475 935.264L83.7939 937.376Z"/><path fill="#F92772" d="M198.69 896.48L194.667 899.872L203.799 909.92C205.555 911.84 206.066 912.448 207.886 913.6H136.24V918.336H207.886C206.353 919.328 205.076 920.672 203.799 922.016L194.667 932.064L198.69 935.456L216.027 915.968L198.69 896.48ZM218.039 896.48L214.079 899.872L228.702 915.968L214.079 932.064L218.039 935.456L235.407 915.968L218.039 896.48Z"/><path fill="#F92772" d="M265.401 918.368H292.316V931.04H297.329V918.368H309.876V913.856H297.329V901.088H292.316V913.856H265.401V901.088H260.388V913.856H248.001V918.368H260.388V931.04H265.401V918.368Z"/><path fill="#F92772" d="M328.44 908.224C328.44 911.072 330.643 913.44 333.581 913.44C336.55 913.44 338.753 911.072 338.753 908.224C338.753 905.376 336.55 903.072 333.581 903.072C330.643 903.072 328.44 905.376 328.44 908.224ZM384.537 907.712H349.193V912.352H384.537V907.712ZM328.44 923.968C328.44 926.88 330.643 929.184 333.581 929.184C336.55 929.184 338.753 926.88 338.753 923.968C338.753 921.184 336.55 918.816 333.581 918.816C330.643 918.816 328.44 921.184 328.44 923.968ZM384.537 919.84H349.193V924.512H384.537V919.84Z"/><path fill="#84D62D" d="M71.2083 836.48H90.9396L91.6101 831.936H65.7168V876H71.2083V856.384H88.4492V851.904H71.2083V836.48Z"/><path fill="#84D62D" d="M125.62 831.936H100.461V836.384H110.231V871.552H100.461V876H125.62V871.552H115.85V836.384H125.62V831.936Z"/><path fill="#84D62D" d="M162.538 844.288C162.538 836.16 156.855 831.936 145.999 831.936H134.697V876H140.252V857.088H146.191L158.196 876H164.837L151.81 856.448C157.845 854.976 162.538 850.912 162.538 844.288ZM156.599 844.288C156.599 850.4 152.96 852.736 146.638 852.736H140.252V836.352H146.638C153.407 836.352 156.599 838.656 156.599 844.288Z"/><path fill="#84D62D" d="M195.587 864.768L199.099 876H204.91L190.607 831.936H183.519L169.215 876H174.675L178.187 864.768H195.587ZM179.624 860.16L186.935 836.608L194.151 860.16H179.624Z"/><path fill="#84D62D" d="M253.222 831.232C243.038 831.232 234.417 839.104 234.417 853.952C234.417 868.736 242.718 876.736 253.446 876.736C259.704 876.736 263.918 874.56 266.6 871.936L263.727 868.288C261.396 870.208 258.427 871.968 253.51 871.968C246.039 871.968 240.164 867.072 240.164 853.952C240.164 840.48 246.422 835.872 253.637 835.872C256.99 835.872 260.087 836.8 262.865 839.136L265.962 835.52C262.481 832.704 258.969 831.232 253.222 831.232Z"/><path fill="#84D62D" d="M339.664 853.76C339.664 835.456 329.384 831.936 319.103 831.936H309.716V876H319.805C328.905 876 339.664 872.224 339.664 853.76ZM333.758 853.76C333.758 868.352 326.798 871.552 320.476 871.552H315.24V836.48H320.412C326.446 836.48 333.758 838.4 333.758 853.76Z"/><path fill="#84D62D" d="M302.764 853.984C302.764 840.352 297.272 831.2 286.577 831.2C275.881 831.2 270.389 840.672 270.389 854.048C270.389 867.68 275.881 876.704 286.577 876.704C297.272 876.704 302.764 867.36 302.764 853.984ZM296.953 853.984C296.953 865.728 293.984 872.032 286.577 872.032C279.361 872.032 276.2 865.792 276.2 854.048C276.2 842.304 279.169 835.84 286.577 835.84C293.984 835.84 296.953 842.24 296.953 853.984Z"/><path fill="#AE81FF" fill-rule="evenodd" d="M384.132 822H344.223V886H384.132V822ZM374.569 836.48H355.796V851.328H372.079V855.904H355.796V871.552H375.782V876H350.24V831.936H375.208L374.569 836.48Z" clip-rule="evenodd"/><rect width="441" height="252" x="441" y="756" fill="#2B303B"/><path fill="#8FA1B3" d="M524.794 937.376L532.425 924.512H566.459V919.84H535.202L539.64 912.352H566.459V907.712H542.386L549.219 896.16L545.1 894.112L536.99 907.712H503.307V912.352H534.213L529.743 919.84H503.307V924.512H526.965L520.548 935.264L524.794 937.376Z"/><path fill="#8FA1B3" d="M639.69 896.48L635.667 899.872L644.799 909.92C646.555 911.84 647.066 912.448 648.886 913.6H577.24V918.336H648.886C647.353 919.328 646.076 920.672 644.799 922.016L635.667 932.064L639.69 935.456L657.027 915.968L639.69 896.48ZM659.039 896.48L655.079 899.872L669.702 915.968L655.079 932.064L659.039 935.456L676.407 915.968L659.039 896.48Z"/><path fill="#8FA1B3" d="M706.401 918.368H733.316V931.04H738.329V918.368H750.876V913.856H738.329V901.088H733.316V913.856H706.401V901.088H701.388V913.856H689.001V918.368H701.388V931.04H706.401V918.368Z"/><path fill="#8FA1B3" d="M769.44 908.224C769.44 911.072 771.643 913.44 774.581 913.44C777.55 913.44 779.753 911.072 779.753 908.224C779.753 905.376 777.55 903.072 774.581 903.072C771.643 903.072 769.44 905.376 769.44 908.224ZM825.537 907.712H790.193V912.352H825.537V907.712ZM769.44 923.968C769.44 926.88 771.643 929.184 774.581 929.184C777.55 929.184 779.753 926.88 779.753 923.968C779.753 921.184 777.55 918.816 774.581 918.816C771.643 918.816 769.44 921.184 769.44 923.968ZM825.537 919.84H790.193V924.512H825.537V919.84Z"/><path fill="#B48EAD" d="M512.208 836.48H531.94L532.61 831.936H506.717V876H512.208V856.384H529.449V851.904H512.208V836.48Z"/><path fill="#B48EAD" d="M566.62 831.936H541.461V836.384H551.231V871.552H541.461V876H566.62V871.552H556.85V836.384H566.62V831.936Z"/><path fill="#B48EAD" d="M603.538 844.288C603.538 836.16 597.855 831.936 586.999 831.936H575.697V876H581.252V857.088H587.191L599.196 876H605.837L592.81 856.448C598.845 854.976 603.538 850.912 603.538 844.288ZM597.599 844.288C597.599 850.4 593.96 852.736 587.638 852.736H581.252V836.352H587.638C594.407 836.352 597.599 838.656 597.599 844.288Z"/><path fill="#B48EAD" d="M636.587 864.768L640.099 876H645.91L631.607 831.936H624.519L610.215 876H615.675L619.187 864.768H636.587ZM620.624 860.16L627.935 836.608L635.151 860.16H620.624Z"/><path fill="#B48EAD" d="M694.222 831.232C684.038 831.232 675.417 839.104 675.417 853.952C675.417 868.736 683.718 876.736 694.446 876.736C700.704 876.736 704.918 874.56 707.6 871.936L704.727 868.288C702.396 870.208 699.427 871.968 694.51 871.968C687.039 871.968 681.164 867.072 681.164 853.952C681.164 840.48 687.422 835.872 694.637 835.872C697.99 835.872 701.087 836.8 703.865 839.136L706.962 835.52C703.481 832.704 699.969 831.232 694.222 831.232Z"/><path fill="#B48EAD" d="M780.664 853.76C780.664 835.456 770.384 831.936 760.103 831.936H750.716V876H760.805C769.905 876 780.664 872.224 780.664 853.76ZM774.758 853.76C774.758 868.352 767.798 871.552 761.476 871.552H756.24V836.48H761.412C767.446 836.48 774.758 838.4 774.758 853.76Z"/><path fill="#B48EAD" d="M743.764 853.984C743.764 840.352 738.272 831.2 727.577 831.2C716.881 831.2 711.389 840.672 711.389 854.048C711.389 867.68 716.881 876.704 727.577 876.704C738.272 876.704 743.764 867.36 743.764 853.984ZM737.953 853.984C737.953 865.728 734.984 872.032 727.577 872.032C720.361 872.032 717.2 865.792 717.2 854.048C717.2 842.304 720.169 835.84 727.577 835.84C734.984 835.84 737.953 842.24 737.953 853.984Z"/><path fill="#98BE8C" fill-rule="evenodd" d="M825.132 822H785.223V886H825.132V822ZM815.569 836.48H796.796V851.328H813.079V855.904H796.796V871.552H816.782V876H791.24V831.936H816.208L815.569 836.48Z" clip-rule="evenodd"/><rect width="441" height="252" x="882" y="756" fill="#202020"/><path fill="#A0AB7F" d="M965.794 937.376L973.425 924.512H1007.46V919.84H976.202L980.64 912.352H1007.46V907.712H983.386L990.219 896.16L986.1 894.112L977.99 907.712H944.307V912.352H975.213L970.743 919.84H944.307V924.512H967.965L961.548 935.264L965.794 937.376Z"/><path fill="#A0AB7F" d="M1080.69 896.48L1076.67 899.872L1085.8 909.92C1087.55 911.84 1088.07 912.448 1089.89 913.6H1018.24V918.336H1089.89C1088.35 919.328 1087.08 920.672 1085.8 922.016L1076.67 932.064L1080.69 935.456L1098.03 915.968L1080.69 896.48ZM1100.04 896.48L1096.08 899.872L1110.7 915.968L1096.08 932.064L1100.04 935.456L1117.41 915.968L1100.04 896.48Z"/><path fill="#A0AB7F" d="M1147.4 918.368H1174.32V931.04H1179.33V918.368H1191.88V913.856H1179.33V901.088H1174.32V913.856H1147.4V901.088H1142.39V913.856H1130V918.368H1142.39V931.04H1147.4V918.368Z"/><path fill="#A0AB7F" d="M1210.44 908.224C1210.44 911.072 1212.64 913.44 1215.58 913.44C1218.55 913.44 1220.75 911.072 1220.75 908.224C1220.75 905.376 1218.55 903.072 1215.58 903.072C1212.64 903.072 1210.44 905.376 1210.44 908.224ZM1266.54 907.712H1231.19V912.352H1266.54V907.712ZM1210.44 923.968C1210.44 926.88 1212.64 929.184 1215.58 929.184C1218.55 929.184 1220.75 926.88 1220.75 923.968C1220.75 921.184 1218.55 918.816 1215.58 918.816C1212.64 918.816 1210.44 921.184 1210.44 923.968ZM1266.54 919.84H1231.19V924.512H1266.54V919.84Z"/><path fill="#AB8254" d="M953.208 836.48H972.94L973.61 831.936H947.717V876H953.208V856.384H970.449V851.904H953.208V836.48Z"/><path fill="#AB8254" d="M1007.62 831.936H982.461V836.384H992.231V871.552H982.461V876H1007.62V871.552H997.85V836.384H1007.62V831.936Z"/><path fill="#AB8254" d="M1044.54 844.288C1044.54 836.16 1038.85 831.936 1028 831.936H1016.7V876H1022.25V857.088H1028.19L1040.2 876H1046.84L1033.81 856.448C1039.84 854.976 1044.54 850.912 1044.54 844.288ZM1038.6 844.288C1038.6 850.4 1034.96 852.736 1028.64 852.736H1022.25V836.352H1028.64C1035.41 836.352 1038.6 838.656 1038.6 844.288Z"/><path fill="#AB8254" d="M1077.59 864.768L1081.1 876H1086.91L1072.61 831.936H1065.52L1051.22 876H1056.67L1060.19 864.768H1077.59ZM1061.62 860.16L1068.93 836.608L1076.15 860.16H1061.62Z"/><path fill="#AB8254" d="M1135.22 831.232C1125.04 831.232 1116.42 839.104 1116.42 853.952C1116.42 868.736 1124.72 876.736 1135.45 876.736C1141.7 876.736 1145.92 874.56 1148.6 871.936L1145.73 868.288C1143.4 870.208 1140.43 871.968 1135.51 871.968C1128.04 871.968 1122.16 867.072 1122.16 853.952C1122.16 840.48 1128.42 835.872 1135.64 835.872C1138.99 835.872 1142.09 836.8 1144.86 839.136L1147.96 835.52C1144.48 832.704 1140.97 831.232 1135.22 831.232Z"/><path fill="#AB8254" d="M1221.66 853.76C1221.66 835.456 1211.38 831.936 1201.1 831.936H1191.72V876H1201.81C1210.9 876 1221.66 872.224 1221.66 853.76ZM1215.76 853.76C1215.76 868.352 1208.8 871.552 1202.48 871.552H1197.24V836.48H1202.41C1208.45 836.48 1215.76 838.4 1215.76 853.76Z"/><path fill="#AB8254" d="M1184.76 853.984C1184.76 840.352 1179.27 831.2 1168.58 831.2C1157.88 831.2 1152.39 840.672 1152.39 854.048C1152.39 867.68 1157.88 876.704 1168.58 876.704C1179.27 876.704 1184.76 867.36 1184.76 853.984ZM1178.95 853.984C1178.95 865.728 1175.98 872.032 1168.58 872.032C1161.36 872.032 1158.2 865.792 1158.2 854.048C1158.2 842.304 1161.17 835.84 1168.58 835.84C1175.98 835.84 1178.95 842.24 1178.95 853.984Z"/><path fill="#D87F62" fill-rule="evenodd" d="M1266.13 822H1226.22V886H1266.13V822ZM1256.57 836.48H1237.8V851.328H1254.08V855.904H1237.8V871.552H1257.78V876H1232.24V831.936H1257.21L1256.57 836.48Z" clip-rule="evenodd"/><rect width="441" height="252" x="1323" y="756" fill="#002B36"/><path fill="#869600" d="M1406.79 937.376L1414.42 924.512H1448.46V919.84H1417.2L1421.64 912.352H1448.46V907.712H1424.39L1431.22 896.16L1427.1 894.112L1418.99 907.712H1385.31V912.352H1416.21L1411.74 919.84H1385.31V924.512H1408.96L1402.55 935.264L1406.79 937.376Z"/><path fill="#869600" d="M1521.69 896.48L1517.67 899.872L1526.8 909.92C1528.55 911.84 1529.07 912.448 1530.89 913.6H1459.24V918.336H1530.89C1529.35 919.328 1528.08 920.672 1526.8 922.016L1517.67 932.064L1521.69 935.456L1539.03 915.968L1521.69 896.48ZM1541.04 896.48L1537.08 899.872L1551.7 915.968L1537.08 932.064L1541.04 935.456L1558.41 915.968L1541.04 896.48Z"/><path fill="#869600" d="M1588.4 918.368H1615.32V931.04H1620.33V918.368H1632.88V913.856H1620.33V901.088H1615.32V913.856H1588.4V901.088H1583.39V913.856H1571V918.368H1583.39V931.04H1588.4V918.368Z"/><path fill="#869600" d="M1651.44 908.224C1651.44 911.072 1653.64 913.44 1656.58 913.44C1659.55 913.44 1661.75 911.072 1661.75 908.224C1661.75 905.376 1659.55 903.072 1656.58 903.072C1653.64 903.072 1651.44 905.376 1651.44 908.224ZM1707.54 907.712H1672.19V912.352H1707.54V907.712ZM1651.44 923.968C1651.44 926.88 1653.64 929.184 1656.58 929.184C1659.55 929.184 1661.75 926.88 1661.75 923.968C1661.75 921.184 1659.55 918.816 1656.58 918.816C1653.64 918.816 1651.44 921.184 1651.44 923.968ZM1707.54 919.84H1672.19V924.512H1707.54V919.84Z"/><path fill="#00A099" d="M1394.21 836.48H1413.94L1414.61 831.936H1388.72V876H1394.21V856.384H1411.45V851.904H1394.21V836.48Z"/><path fill="#00A099" d="M1448.62 831.936H1423.46V836.384H1433.23V871.552H1423.46V876H1448.62V871.552H1438.85V836.384H1448.62V831.936Z"/><path fill="#00A099" d="M1485.54 844.288C1485.54 836.16 1479.85 831.936 1469 831.936H1457.7V876H1463.25V857.088H1469.19L1481.2 876H1487.84L1474.81 856.448C1480.84 854.976 1485.54 850.912 1485.54 844.288ZM1479.6 844.288C1479.6 850.4 1475.96 852.736 1469.64 852.736H1463.25V836.352H1469.64C1476.41 836.352 1479.6 838.656 1479.6 844.288Z"/><path fill="#00A099" d="M1518.59 864.768L1522.1 876H1527.91L1513.61 831.936H1506.52L1492.22 876H1497.67L1501.19 864.768H1518.59ZM1502.62 860.16L1509.93 836.608L1517.15 860.16H1502.62Z"/><path fill="#00A099" d="M1576.22 831.232C1566.04 831.232 1557.42 839.104 1557.42 853.952C1557.42 868.736 1565.72 876.736 1576.45 876.736C1582.7 876.736 1586.92 874.56 1589.6 871.936L1586.73 868.288C1584.4 870.208 1581.43 871.968 1576.51 871.968C1569.04 871.968 1563.16 867.072 1563.16 853.952C1563.16 840.48 1569.42 835.872 1576.64 835.872C1579.99 835.872 1583.09 836.8 1585.86 839.136L1588.96 835.52C1585.48 832.704 1581.97 831.232 1576.22 831.232Z"/><path fill="#00A099" d="M1662.66 853.76C1662.66 835.456 1652.38 831.936 1642.1 831.936H1632.72V876H1642.81C1651.9 876 1662.66 872.224 1662.66 853.76ZM1656.76 853.76C1656.76 868.352 1649.8 871.552 1643.48 871.552H1638.24V836.48H1643.41C1649.45 836.48 1656.76 838.4 1656.76 853.76Z"/><path fill="#00A099" d="M1625.76 853.984C1625.76 840.352 1620.27 831.2 1609.58 831.2C1598.88 831.2 1593.39 840.672 1593.39 854.048C1593.39 867.68 1598.88 876.704 1609.58 876.704C1620.27 876.704 1625.76 867.36 1625.76 853.984ZM1619.95 853.984C1619.95 865.728 1616.98 872.032 1609.58 872.032C1602.36 872.032 1599.2 865.792 1599.2 854.048C1599.2 842.304 1602.17 835.84 1609.58 835.84C1616.98 835.84 1619.95 842.24 1619.95 853.984Z"/><path fill="#DA4282" fill-rule="evenodd" d="M1707.13 822H1667.22V886H1707.13V822ZM1697.57 836.48H1678.8V851.328H1695.08V855.904H1678.8V871.552H1698.78V876H1673.24V831.936H1698.21L1697.57 836.48Z" clip-rule="evenodd"/></svg>